<svg width="209" height="59" viewBox="0 0 209 59" fill="none" xmlns="http://www.w3.org/2000/svg">
<path d="M75.5586 38.9863C75.3125 39.4668 75.0254 39.9238 74.6973 40.3574C74.3809 40.7793 74.0469 41.1719 73.6953 41.5352C73.3438 41.8867 72.9922 42.2148 72.6406 42.5195C72.2891 42.8125 71.9668 43.0703 71.6738 43.293V45.3145C71.6738 46.8496 71.5508 48.2148 71.3047 49.4102C71.0703 50.6055 70.7246 51.6191 70.2676 52.4512C69.8223 53.2832 69.2832 53.916 68.6504 54.3496C68.0293 54.7832 67.332 55 66.5586 55C66.1367 55 65.75 54.9121 65.3984 54.7363C65.0469 54.5723 64.7422 54.3438 64.4844 54.0508C64.2383 53.7578 64.0449 53.4121 63.9043 53.0137C63.7637 52.627 63.6934 52.2109 63.6934 51.7656C63.6934 50.9102 63.834 50.1191 64.1152 49.3926C64.4082 48.6777 64.8008 47.998 65.293 47.3535C65.7852 46.7207 66.3535 46.1172 66.998 45.543C67.6426 44.957 68.3281 44.377 69.0547 43.8027C69.0664 43.1582 69.084 42.5195 69.1074 41.8867C69.1426 41.2539 69.1719 40.6562 69.1953 40.0938C69.2305 39.5312 69.2598 39.0215 69.2832 38.5645C69.3184 38.1074 69.3477 37.7324 69.3711 37.4395C68.9727 38.248 68.5215 39.0449 68.0176 39.8301C67.5254 40.6035 66.998 41.3418 66.4355 42.0449C65.873 42.748 65.2812 43.3984 64.6602 43.9961C64.0508 44.582 63.4355 45.0918 62.8145 45.5254C62.1934 45.959 61.5723 46.293 60.9512 46.5273C60.3418 46.7734 59.7559 46.8965 59.1934 46.8965C58.5605 46.8965 57.957 46.7676 57.3828 46.5098C56.8203 46.2637 56.3223 45.8711 55.8887 45.332C55.4668 44.793 55.1328 44.1016 54.8867 43.2578C54.6289 42.4141 54.5 41.4062 54.5 40.2344C54.5 38.9219 54.6465 37.5742 54.9395 36.1914C55.2324 34.8086 55.6367 33.4375 56.1523 32.0781C56.668 30.7188 57.2832 29.3887 57.998 28.0879C58.7129 26.7871 59.4922 25.5625 60.3359 24.4141C61.1797 23.2539 62.0762 22.1934 63.0254 21.2324C63.9746 20.2598 64.9414 19.4219 65.9258 18.7188C66.9102 18.0156 67.8945 17.4707 68.8789 17.084C69.875 16.6855 70.8418 16.4863 71.7793 16.4863C72.7637 16.4863 73.5488 16.7383 74.1348 17.2422C74.7324 17.7344 75.0312 18.4375 75.0312 19.3516C75.0312 19.8438 74.9258 20.3242 74.7148 20.793C74.5156 21.25 74.2402 21.6953 73.8887 22.1289C73.5488 22.5508 73.1621 22.9551 72.7285 23.3418C72.2949 23.7168 71.8496 24.0625 71.3926 24.3789C70.9473 24.6953 70.502 24.9766 70.0566 25.2227C69.623 25.4688 69.2363 25.6738 68.8965 25.8379L68.3691 25.1172C68.8145 24.8945 69.3008 24.5781 69.8281 24.168C70.3555 23.7578 70.8477 23.2949 71.3047 22.7793C71.7617 22.2637 72.1426 21.707 72.4473 21.1094C72.752 20.5117 72.9043 19.9141 72.9043 19.3164C72.9043 18.8125 72.7695 18.3965 72.5 18.0684C72.2422 17.7285 71.8262 17.5586 71.252 17.5586C70.3613 17.5586 69.4062 17.834 68.3867 18.3848C67.3789 18.9355 66.3711 19.7031 65.3633 20.6875C64.3672 21.6719 63.4121 22.8496 62.498 24.2207C61.584 25.5801 60.7754 27.0742 60.0723 28.7031C59.3691 30.332 58.8066 32.0605 58.3848 33.8887C57.9629 35.7168 57.752 37.5918 57.752 39.5137C57.752 40.3574 57.8105 41.1133 57.9277 41.7812C58.0566 42.4492 58.2324 43.0176 58.4551 43.4863C58.6895 43.9434 58.9707 44.3008 59.2988 44.5586C59.6387 44.8047 60.0195 44.9277 60.4414 44.9277C60.957 44.9277 61.5195 44.7695 62.1289 44.4531C62.7383 44.1367 63.3477 43.709 63.957 43.1699C64.5781 42.6309 65.1875 42.0098 65.7852 41.3066C66.3828 40.5918 66.9336 39.8418 67.4375 39.0566C67.9414 38.2715 68.3809 37.4746 68.7559 36.666C69.1309 35.8574 69.4062 35.0898 69.582 34.3633C69.6523 33.5078 69.7227 32.7285 69.793 32.0254C69.8633 31.3105 69.9277 30.6836 69.9863 30.1445C70.0566 29.6055 70.1211 29.1719 70.1797 28.8438C70.2383 28.5039 70.291 28.2812 70.3379 28.1758C70.4316 28 70.5664 27.8242 70.7422 27.6484C70.918 27.4727 71.1055 27.3203 71.3047 27.1914C71.5156 27.0508 71.7207 26.9395 71.9199 26.8574C72.1191 26.7754 72.2891 26.7344 72.4297 26.7344C72.6172 26.7344 72.7402 26.8105 72.7988 26.9629C72.8691 27.1152 72.9043 27.2793 72.9043 27.4551C72.9043 27.9707 72.8164 28.6562 72.6406 29.5117C72.4648 30.3672 72.2422 31.3633 71.9727 32.5C71.8555 32.9922 71.7676 33.6426 71.709 34.4512C71.6621 35.248 71.627 36.1035 71.6035 37.0176C71.5918 37.9199 71.5859 38.834 71.5859 39.7598C71.5859 40.6738 71.5801 41.4941 71.5684 42.2207C72.4355 41.5879 73.127 40.9375 73.6426 40.2695C74.1699 39.5898 74.5684 38.9805 74.8379 38.4414L75.0312 38.0723L75.752 38.6172L75.5586 38.9863ZM69.0195 45.1035C68.4688 45.5371 67.9648 45.9941 67.5078 46.4746C67.0508 46.9551 66.6582 47.4707 66.3301 48.0215C66.0137 48.5723 65.7617 49.1699 65.5742 49.8145C65.3984 50.4707 65.3105 51.1797 65.3105 51.9414C65.3105 52.668 65.4277 53.207 65.6621 53.5586C65.8965 53.9219 66.1953 54.1035 66.5586 54.1035C66.9219 54.1035 67.25 53.9453 67.543 53.6289C67.8477 53.3242 68.1055 52.8145 68.3164 52.0996C68.5391 51.3965 68.709 50.4707 68.8262 49.3223C68.9551 48.1738 69.0195 46.7676 69.0195 45.1035ZM85.7012 41.6406C85.7012 42.3086 85.7598 42.8711 85.877 43.3281C85.9941 43.7852 86.1992 44.0137 86.4922 44.0137C86.668 44.0137 86.8555 43.9316 87.0547 43.7676C87.2656 43.5918 87.5059 43.3105 87.7754 42.9238C88.0449 42.5371 88.3496 42.0391 88.6895 41.4297C89.041 40.8086 89.4395 40.0527 89.8848 39.1621L90.4121 38.0723L91.1328 38.6172L90.6055 39.707C90.1133 40.6914 89.6504 41.5762 89.2168 42.3613C88.7949 43.1348 88.3906 43.791 88.0039 44.3301C87.6172 44.8691 87.2363 45.2852 86.8613 45.5781C86.498 45.8594 86.1348 46 85.7715 46C85.3848 46 85.0566 45.8945 84.7871 45.6836C84.5293 45.4727 84.3125 45.1855 84.1367 44.8223C83.9609 44.4473 83.8262 44.0195 83.7324 43.5391C83.6387 43.0469 83.5742 42.5254 83.5391 41.9746C83.2578 42.5371 82.9473 43.0645 82.6074 43.5566C82.2676 44.0371 81.9102 44.459 81.5352 44.8223C81.1719 45.1855 80.791 45.4727 80.3926 45.6836C79.9941 45.8945 79.5957 46 79.1973 46C78.6113 46 78.043 45.877 77.4922 45.6309C76.9414 45.3848 76.4492 45.0098 76.0156 44.5059C75.5938 44.002 75.2539 43.3691 74.9961 42.6074C74.7383 41.834 74.6094 40.9258 74.6094 39.8828C74.6094 38.6641 74.7676 37.5508 75.084 36.543C75.4004 35.5234 75.8281 34.6504 76.3672 33.9238C76.9062 33.1855 77.5273 32.6172 78.2305 32.2188C78.9336 31.8086 79.6719 31.6035 80.4453 31.6035C80.9141 31.6035 81.3477 31.709 81.7461 31.9199C82.1445 32.1309 82.4902 32.3887 82.7832 32.6934C83.0879 32.9863 83.3398 33.3027 83.5391 33.6426C83.7383 33.9707 83.873 34.252 83.9434 34.4863L84.1543 32.7812C84.1777 32.5586 84.2832 32.3711 84.4707 32.2188C84.6699 32.0664 84.8867 31.9492 85.1211 31.8672C85.3555 31.7734 85.584 31.709 85.8066 31.6738C86.0293 31.627 86.1875 31.6035 86.2812 31.6035C86.4219 31.6035 86.5156 31.627 86.5625 31.6738C86.6094 31.7207 86.6328 31.8145 86.6328 31.9551C86.6328 32.1309 86.5801 32.4883 86.4746 33.0273C86.3809 33.5547 86.2754 34.2344 86.1582 35.0664C86.0527 35.8867 85.9473 36.8535 85.8418 37.9668C85.748 39.0801 85.7012 40.3047 85.7012 41.6406ZM83.7676 37C83.7676 36.4609 83.6855 35.9336 83.5215 35.418C83.3574 34.8906 83.1348 34.4277 82.8535 34.0293C82.5723 33.6191 82.2441 33.291 81.8691 33.0449C81.5059 32.7988 81.1191 32.6758 80.709 32.6758C80.2051 32.6758 79.7305 32.8223 79.2852 33.1152C78.8516 33.3965 78.4707 33.8008 78.1426 34.3281C77.8262 34.8438 77.5742 35.4707 77.3867 36.209C77.1992 36.9355 77.1055 37.7383 77.1055 38.6172C77.1055 40.375 77.3809 41.7168 77.9316 42.6426C78.4824 43.5566 79.2148 44.0137 80.1289 44.0137C80.5273 44.0137 80.9375 43.8555 81.3594 43.5391C81.793 43.2109 82.1855 42.748 82.5371 42.1504C82.9004 41.541 83.1934 40.8027 83.416 39.9355C83.6504 39.0684 83.7676 38.0898 83.7676 37ZM100.678 39.8828C100.678 40.6797 100.555 41.4473 100.309 42.1855C100.074 42.9121 99.7227 43.5625 99.2539 44.1367C98.7969 44.6992 98.2227 45.1504 97.5312 45.4902C96.8516 45.8301 96.0723 46 95.1934 46C94.5605 46 93.9922 45.9004 93.4883 45.7012C92.9961 45.4902 92.5742 45.2148 92.2227 44.875C91.8711 44.5234 91.6016 44.1309 91.4141 43.6973C91.2266 43.252 91.1328 42.7949 91.1328 42.3262C91.1328 41.8574 91.2207 41.4238 91.3965 41.0254C91.584 40.6152 91.8301 40.2695 92.1348 39.9883C92.4512 39.6953 92.8086 39.4668 93.207 39.3027C93.6055 39.1387 94.0273 39.0566 94.4727 39.0566C94.7539 39.0566 95.0469 39.0918 95.3516 39.1621V39.6719C94.9766 39.6719 94.6074 39.748 94.2441 39.9004C93.8926 40.0527 93.5762 40.2637 93.2949 40.5332C93.0254 40.791 92.8086 41.1074 92.6445 41.4824C92.4805 41.8457 92.3984 42.2383 92.3984 42.6602C92.3984 43.4336 92.6621 44.0547 93.1895 44.5234C93.7285 44.9805 94.4609 45.209 95.3867 45.209C95.8555 45.209 96.2832 45.1211 96.6699 44.9453C97.0566 44.7578 97.3848 44.5059 97.6543 44.1895C97.9355 43.8613 98.1465 43.4746 98.2871 43.0293C98.4395 42.584 98.5156 42.0977 98.5156 41.5703C98.5156 41.0664 98.416 40.5977 98.2168 40.1641C98.0176 39.7305 97.7539 39.3203 97.4258 38.9336C97.0977 38.5469 96.7227 38.1836 96.3008 37.8438C95.8906 37.5039 95.4688 37.1816 95.0352 36.877C94.6133 36.5605 94.1973 36.2559 93.7871 35.9629C93.377 35.6699 93.0195 35.377 92.7148 35.084L90.957 38.9863L90.2363 38.4414L92.0293 34.5215C91.5957 34.1113 91.2734 33.7246 91.0625 33.3613C90.8633 32.9863 90.7637 32.541 90.7637 32.0254C90.7637 31.7441 90.8105 31.4805 90.9043 31.2344C91.0098 30.9766 91.1445 30.7598 91.3086 30.584C91.4844 30.3965 91.6836 30.25 91.9062 30.1445C92.1289 30.0391 92.3633 29.9863 92.6094 29.9863C93.0547 29.9863 93.3887 30.1152 93.6113 30.373C93.834 30.6191 93.9453 30.9297 93.9453 31.3047C93.9453 31.4805 93.9277 31.668 93.8926 31.8672C93.8574 32.0547 93.8105 32.248 93.752 32.4473C93.7051 32.6348 93.6523 32.8105 93.5938 32.9746C93.5469 33.1387 93.5059 33.2793 93.4707 33.3965C93.8223 33.666 94.2441 33.9297 94.7363 34.1875C95.2285 34.4336 95.7383 34.6914 96.2656 34.9609C96.8047 35.2305 97.3379 35.5234 97.8652 35.8398C98.3926 36.1562 98.8613 36.5078 99.2715 36.8945C99.6934 37.2812 100.033 37.7207 100.291 38.2129C100.549 38.7051 100.678 39.2617 100.678 39.8828ZM92.6445 30.7773C92.4805 30.7773 92.3457 30.8359 92.2402 30.9531C92.1465 31.0586 92.0996 31.2051 92.0996 31.3926C92.0996 31.6035 92.1523 31.8379 92.2578 32.0957C92.3633 32.3535 92.5508 32.6055 92.8203 32.8516C92.9375 32.6055 93.0254 32.3652 93.084 32.1309C93.1543 31.8965 93.1895 31.6621 93.1895 31.4277C93.1895 31.2402 93.1367 31.0879 93.0312 30.9707C92.9375 30.8418 92.8086 30.7773 92.6445 30.7773ZM102.049 40.2344C102.049 38.9922 102.096 37.7441 102.189 36.4902C102.283 35.2363 102.406 33.9648 102.559 32.6758H100.959L101.152 31.6035H102.699C102.863 30.4082 103.027 29.2129 103.191 28.0176C103.367 26.8105 103.525 25.6035 103.666 24.3965H105.459C105.436 24.6543 105.4 25.0293 105.354 25.5215C105.318 26.002 105.271 26.5645 105.213 27.209C105.166 27.8418 105.119 28.5391 105.072 29.3008C105.025 30.0508 104.979 30.8184 104.932 31.6035H108.342L108.166 32.6758H104.861C104.814 33.3438 104.773 34 104.738 34.6445C104.703 35.2891 104.668 35.9043 104.633 36.4902C104.609 37.0645 104.592 37.5977 104.58 38.0898C104.568 38.5703 104.562 38.9863 104.562 39.3379C104.562 40.2285 104.586 40.9727 104.633 41.5703C104.691 42.168 104.773 42.6484 104.879 43.0117C104.996 43.375 105.137 43.6328 105.301 43.7852C105.477 43.9375 105.676 44.0137 105.898 44.0137C106.191 44.0137 106.514 43.8672 106.865 43.5742C107.229 43.2695 107.604 42.8652 107.99 42.3613C108.377 41.8574 108.77 41.2715 109.168 40.6035C109.566 39.9238 109.953 39.2031 110.328 38.4414L110.504 38.0723L111.225 38.6172L111.049 38.9863C110.51 40.0762 109.971 41.0547 109.432 41.9219C108.904 42.7891 108.383 43.5273 107.867 44.1367C107.352 44.7344 106.848 45.1973 106.355 45.5254C105.863 45.8418 105.389 46 104.932 46C104.475 46 104.064 45.8945 103.701 45.6836C103.35 45.4727 103.051 45.1387 102.805 44.6816C102.559 44.2129 102.371 43.6152 102.242 42.8887C102.113 42.1621 102.049 41.2773 102.049 40.2344ZM110.346 38.4414L110.521 38.0723C110.697 37.7207 110.855 37.3574 110.996 36.9824C111.148 36.6074 111.277 36.2559 111.383 35.9277C111.488 35.5879 111.57 35.2891 111.629 35.0312C111.688 34.7617 111.729 34.5566 111.752 34.416C111.447 34.3809 111.154 34.3047 110.873 34.1875C110.592 34.0703 110.346 33.9121 110.135 33.7129C109.924 33.5137 109.76 33.2793 109.643 33.0098C109.514 32.7402 109.449 32.4355 109.449 32.0957C109.449 31.8262 109.496 31.5859 109.59 31.375C109.684 31.1641 109.812 30.9883 109.977 30.8477C110.129 30.707 110.305 30.6016 110.504 30.5312C110.691 30.4492 110.891 30.4082 111.102 30.4082C111.383 30.4082 111.629 30.4668 111.84 30.584C112.051 30.7012 112.227 30.8594 112.367 31.0586C112.508 31.2461 112.613 31.4688 112.684 31.7266C112.754 31.9727 112.789 32.2305 112.789 32.5C113.117 32.5 113.469 32.4531 113.844 32.3594C114.23 32.2656 114.617 32.166 115.004 32.0605C115.391 31.9434 115.771 31.8379 116.146 31.7441C116.521 31.6504 116.867 31.6035 117.184 31.6035C117.453 31.6035 117.67 31.6621 117.834 31.7793C117.998 31.8848 118.08 32.0664 118.08 32.3242C118.08 32.5117 118.021 32.8223 117.904 33.2559C117.799 33.6895 117.664 34.1934 117.5 34.7676C117.336 35.3418 117.154 35.9688 116.955 36.6484C116.768 37.3164 116.592 37.9961 116.428 38.6875C116.264 39.3672 116.123 40.0293 116.006 40.6738C115.9 41.3184 115.848 41.8926 115.848 42.3965C115.848 43.0293 115.918 43.457 116.059 43.6797C116.199 43.9023 116.451 44.0137 116.814 44.0137C116.967 44.0137 117.154 43.9492 117.377 43.8203C117.611 43.6797 117.893 43.416 118.221 43.0293C118.549 42.6309 118.936 42.0684 119.381 41.3418C119.838 40.6035 120.365 39.6367 120.963 38.4414L121.139 38.0723L121.859 38.6172L121.684 38.9863C120.98 40.3926 120.354 41.5469 119.803 42.4492C119.252 43.3516 118.742 44.0664 118.273 44.5938C117.816 45.1211 117.383 45.4902 116.973 45.7012C116.562 45.9004 116.152 46 115.742 46C115.051 46 114.488 45.7363 114.055 45.209C113.621 44.6816 113.404 43.8672 113.404 42.7656C113.404 42.168 113.486 41.5469 113.65 40.9023C113.814 40.2578 114.02 39.6191 114.266 38.9863C114.512 38.3418 114.787 37.709 115.092 37.0879C115.396 36.4668 115.684 35.8809 115.953 35.3301C116.234 34.7676 116.486 34.2461 116.709 33.7656C116.932 33.2852 117.09 32.8633 117.184 32.5L117.078 32.3945C116.891 32.3945 116.639 32.4941 116.322 32.6934C116.006 32.8926 115.648 33.1211 115.25 33.3789C114.863 33.625 114.447 33.8594 114.002 34.082C113.557 34.3047 113.105 34.4395 112.648 34.4863C112.625 34.6504 112.572 34.8906 112.49 35.207C112.42 35.5234 112.32 35.875 112.191 36.2617C112.062 36.6484 111.916 37.0469 111.752 37.457C111.588 37.8672 111.418 38.2539 111.242 38.6172L111.066 38.9863L110.346 38.4414ZM111.207 31.3926C111.102 31.3926 111.014 31.4277 110.943 31.498C110.873 31.5684 110.838 31.6504 110.838 31.7441C110.838 31.8848 110.873 32.0078 110.943 32.1133C111.014 32.207 111.102 32.2891 111.207 32.3594C111.312 32.418 111.418 32.4648 111.523 32.5C111.641 32.5234 111.74 32.5352 111.822 32.5352C111.822 32.207 111.77 31.9375 111.664 31.7266C111.559 31.5039 111.406 31.3926 111.207 31.3926ZM135.869 38.6172L135.676 38.9863C135.277 39.7832 134.744 40.4219 134.076 40.9023C133.42 41.3711 132.705 41.6758 131.932 41.8164C131.721 42.4141 131.445 42.9707 131.105 43.4863C130.777 43.9902 130.396 44.4297 129.963 44.8047C129.541 45.1797 129.061 45.4727 128.521 45.6836C127.994 45.8945 127.42 46 126.799 46C125.896 46 125.082 45.8125 124.355 45.4375C123.641 45.0508 123.031 44.5352 122.527 43.8906C122.023 43.2344 121.637 42.4727 121.367 41.6055C121.098 40.7266 120.963 39.7891 120.963 38.793C120.963 37.9258 121.062 37.1406 121.262 36.4375C121.461 35.7227 121.713 35.0898 122.018 34.5391C122.322 33.9766 122.662 33.4902 123.037 33.0801C123.412 32.6582 123.781 32.3125 124.145 32.043C124.508 31.7734 124.836 31.5742 125.129 31.4453C125.434 31.3047 125.662 31.2344 125.814 31.2344L126.043 31.8496C125.562 32.2012 125.135 32.6934 124.76 33.3262C124.432 33.8652 124.133 34.5801 123.863 35.4707C123.605 36.3613 123.477 37.4688 123.477 38.793C123.477 39.6016 123.553 40.3867 123.705 41.1484C123.857 41.9102 124.08 42.584 124.373 43.1699C124.666 43.7559 125.023 44.2246 125.445 44.5762C125.879 44.9277 126.365 45.1035 126.904 45.1035C127.643 45.1035 128.252 44.8105 128.732 44.2246C129.225 43.627 129.588 42.8125 129.822 41.7812C129.213 41.6523 128.633 41.4121 128.082 41.0605C127.531 40.709 127.045 40.2754 126.623 39.7598C126.201 39.2324 125.861 38.6289 125.604 37.9492C125.357 37.2695 125.234 36.5312 125.234 35.7344C125.234 35.0781 125.316 34.5039 125.48 34.0117C125.656 33.5078 125.885 33.0918 126.166 32.7637C126.447 32.4238 126.77 32.1719 127.133 32.0078C127.508 31.832 127.9 31.7441 128.311 31.7441C128.791 31.7441 129.283 31.8848 129.787 32.166C130.291 32.4355 130.748 32.8457 131.158 33.3965C131.568 33.9355 131.902 34.6152 132.16 35.4355C132.418 36.2559 132.547 37.2109 132.547 38.3008C132.547 38.7109 132.523 39.1152 132.477 39.5137C132.43 39.9121 132.359 40.2988 132.266 40.6738C132.828 40.5098 133.338 40.2461 133.795 39.8828C134.264 39.5195 134.65 39.0391 134.955 38.4414L135.148 38.0723L135.869 38.6172ZM126.395 35.5938C126.395 36.2852 126.488 36.9238 126.676 37.5098C126.875 38.084 127.139 38.5938 127.467 39.0391C127.795 39.4727 128.176 39.8359 128.609 40.1289C129.043 40.4219 129.506 40.627 129.998 40.7441C130.057 40.416 130.092 40.0762 130.104 39.7246C130.127 39.3613 130.139 38.9922 130.139 38.6172C130.139 37.7852 130.074 37.0352 129.945 36.3672C129.816 35.6875 129.646 35.1133 129.436 34.6445C129.225 34.1641 128.979 33.7949 128.697 33.5371C128.416 33.2793 128.129 33.1504 127.836 33.1504C127.438 33.1504 127.098 33.3672 126.816 33.8008C126.535 34.2227 126.395 34.8203 126.395 35.5938ZM149.58 31.6035V28.3516C149.58 26.9453 149.621 25.668 149.703 24.5195C149.797 23.3594 149.996 22.2871 150.301 21.3027C149.375 21.1621 148.426 20.998 147.453 20.8105C146.48 20.6113 145.525 20.4238 144.588 20.248C143.662 20.0723 142.777 19.9258 141.934 19.8086C141.102 19.6797 140.352 19.6152 139.684 19.6152C138.781 19.6152 138.031 19.6914 137.434 19.8438C136.836 19.9844 136.355 20.1777 135.992 20.4238C135.629 20.6699 135.371 20.957 135.219 21.2852C135.078 21.6016 135.008 21.9414 135.008 22.3047C135.008 22.668 135.09 23.002 135.254 23.3066C135.43 23.6113 135.676 23.8809 135.992 24.1152C136.309 24.3379 136.684 24.5137 137.117 24.6426C137.562 24.7715 138.055 24.8359 138.594 24.8359C139.191 24.8359 139.719 24.7715 140.176 24.6426C140.645 24.502 141.043 24.3496 141.371 24.1855C141.758 23.998 142.098 23.7812 142.391 23.5352L142.742 24.291C142.379 24.5605 141.98 24.8008 141.547 25.0117C141.172 25.1992 140.732 25.3691 140.229 25.5215C139.736 25.6621 139.191 25.7324 138.594 25.7324C137.809 25.7324 137.111 25.627 136.502 25.416C135.904 25.2051 135.4 24.9238 134.99 24.5723C134.58 24.209 134.27 23.7871 134.059 23.3066C133.848 22.8262 133.742 22.3164 133.742 21.7773C133.742 21.2031 133.842 20.6465 134.041 20.1074C134.229 19.5684 134.551 19.0879 135.008 18.666C135.453 18.2441 136.045 17.9102 136.783 17.6641C137.521 17.4062 138.43 17.2773 139.508 17.2773C140.504 17.2773 141.5 17.3594 142.496 17.5234C143.504 17.6758 144.494 17.8691 145.467 18.1035C146.451 18.3262 147.406 18.5723 148.332 18.8418C149.27 19.0996 150.166 19.334 151.021 19.5449C151.525 18.6191 152.152 17.8809 152.902 17.3301C153.652 16.7676 154.467 16.4863 155.346 16.4863C155.721 16.4863 156.055 16.5508 156.348 16.6797C156.641 16.7969 156.887 16.9551 157.086 17.1543C157.285 17.3535 157.432 17.5879 157.525 17.8574C157.631 18.1152 157.684 18.3906 157.684 18.6836C157.684 19.1758 157.566 19.6035 157.332 19.9668C157.109 20.3184 156.799 20.6172 156.4 20.8633C156.002 21.0977 155.533 21.2734 154.994 21.3906C154.455 21.4961 153.875 21.5488 153.254 21.5488C153.113 21.5488 152.967 21.5488 152.814 21.5488C152.674 21.5488 152.533 21.5371 152.393 21.5137C152.299 22.0996 152.223 22.7559 152.164 23.4824C152.117 24.1973 152.094 25.0059 152.094 25.9082V31.6035H154.449L154.08 32.6758H152.094V37C152.094 37.9844 152.082 38.8457 152.059 39.584C152.035 40.3105 151.971 40.9609 151.865 41.5352C151.76 42.0977 151.602 42.6074 151.391 43.0645C151.18 43.5098 150.887 43.9492 150.512 44.3828C149.867 45.1211 148.971 45.7246 147.822 46.1934C146.674 46.6621 145.279 46.8965 143.639 46.8965C142.631 46.8965 141.67 46.7559 140.756 46.4746C139.842 46.1934 139.039 45.8008 138.348 45.2969C137.656 44.793 137.105 44.1895 136.695 43.4863C136.285 42.7832 136.08 42.0039 136.08 41.1484C136.08 40.5156 136.18 39.9473 136.379 39.4434C136.59 38.9395 136.859 38.4941 137.188 38.1074C137.516 37.709 137.873 37.3691 138.26 37.0879C138.658 36.8066 139.045 36.5723 139.42 36.3848C139.795 36.1973 140.135 36.0508 140.439 35.9453C140.744 35.8398 140.973 35.7695 141.125 35.7344L141.477 36.4551C141.207 36.5957 140.902 36.7891 140.562 37.0352C140.234 37.2695 139.924 37.5742 139.631 37.9492C139.338 38.3125 139.092 38.7578 138.893 39.2852C138.693 39.8125 138.594 40.4336 138.594 41.1484C138.594 41.9102 138.723 42.5957 138.98 43.2051C139.238 43.8027 139.596 44.3125 140.053 44.7344C140.521 45.1445 141.072 45.4609 141.705 45.6836C142.35 45.8945 143.053 46 143.814 46C144.67 46 145.449 45.8828 146.152 45.6484C146.867 45.4141 147.477 45.0215 147.98 44.4707C148.484 43.9199 148.877 43.1875 149.158 42.2734C149.439 41.3594 149.58 40.2227 149.58 38.8633V32.6758H146.17L146.521 31.6035H149.58ZM155.346 17.4531C154.818 17.4531 154.332 17.6465 153.887 18.0332C153.441 18.4082 153.072 19.0527 152.779 19.9668C153.143 20.0254 153.494 20.0723 153.834 20.1074C154.174 20.1426 154.496 20.1602 154.801 20.1602C155.117 20.1602 155.387 20.1191 155.609 20.0371C155.844 19.9434 156.031 19.8262 156.172 19.6855C156.312 19.5449 156.418 19.3867 156.488 19.2109C156.559 19.0352 156.594 18.8594 156.594 18.6836C156.594 18.3438 156.477 18.0566 156.242 17.8223C156.008 17.5762 155.709 17.4531 155.346 17.4531ZM155.908 38.4414L156.084 38.0723C156.26 37.7207 156.418 37.3574 156.559 36.9824C156.711 36.6074 156.84 36.2559 156.945 35.9277C157.051 35.5879 157.133 35.2891 157.191 35.0312C157.25 34.7617 157.291 34.5566 157.314 34.416C157.01 34.3809 156.717 34.3047 156.436 34.1875C156.154 34.0703 155.908 33.9121 155.697 33.7129C155.486 33.5137 155.322 33.2793 155.205 33.0098C155.076 32.7402 155.012 32.4355 155.012 32.0957C155.012 31.8262 155.059 31.5859 155.152 31.375C155.246 31.1641 155.375 30.9883 155.539 30.8477C155.691 30.707 155.867 30.6016 156.066 30.5312C156.254 30.4492 156.453 30.4082 156.664 30.4082C156.945 30.4082 157.191 30.4668 157.402 30.584C157.613 30.7012 157.789 30.8594 157.93 31.0586C158.07 31.2461 158.176 31.4688 158.246 31.7266C158.316 31.9727 158.352 32.2305 158.352 32.5C158.68 32.5 159.031 32.4531 159.406 32.3594C159.793 32.2656 160.18 32.166 160.566 32.0605C160.953 31.9434 161.334 31.8379 161.709 31.7441C162.084 31.6504 162.43 31.6035 162.746 31.6035C163.016 31.6035 163.232 31.6621 163.396 31.7793C163.561 31.8848 163.643 32.0664 163.643 32.3242C163.643 32.5117 163.584 32.8223 163.467 33.2559C163.361 33.6895 163.227 34.1934 163.062 34.7676C162.898 35.3418 162.717 35.9688 162.518 36.6484C162.33 37.3164 162.154 37.9961 161.99 38.6875C161.826 39.3672 161.686 40.0293 161.568 40.6738C161.463 41.3184 161.41 41.8926 161.41 42.3965C161.41 43.0293 161.48 43.457 161.621 43.6797C161.762 43.9023 162.014 44.0137 162.377 44.0137C162.529 44.0137 162.717 43.9492 162.939 43.8203C163.174 43.6797 163.455 43.416 163.783 43.0293C164.111 42.6309 164.498 42.0684 164.943 41.3418C165.4 40.6035 165.928 39.6367 166.525 38.4414L166.701 38.0723L167.422 38.6172L167.246 38.9863C166.543 40.3926 165.916 41.5469 165.365 42.4492C164.814 43.3516 164.305 44.0664 163.836 44.5938C163.379 45.1211 162.945 45.4902 162.535 45.7012C162.125 45.9004 161.715 46 161.305 46C160.613 46 160.051 45.7363 159.617 45.209C159.184 44.6816 158.967 43.8672 158.967 42.7656C158.967 42.168 159.049 41.5469 159.213 40.9023C159.377 40.2578 159.582 39.6191 159.828 38.9863C160.074 38.3418 160.35 37.709 160.654 37.0879C160.959 36.4668 161.246 35.8809 161.516 35.3301C161.797 34.7676 162.049 34.2461 162.271 33.7656C162.494 33.2852 162.652 32.8633 162.746 32.5L162.641 32.3945C162.453 32.3945 162.201 32.4941 161.885 32.6934C161.568 32.8926 161.211 33.1211 160.812 33.3789C160.426 33.625 160.01 33.8594 159.564 34.082C159.119 34.3047 158.668 34.4395 158.211 34.4863C158.188 34.6504 158.135 34.8906 158.053 35.207C157.982 35.5234 157.883 35.875 157.754 36.2617C157.625 36.6484 157.479 37.0469 157.314 37.457C157.15 37.8672 156.98 38.2539 156.805 38.6172L156.629 38.9863L155.908 38.4414ZM156.77 31.3926C156.664 31.3926 156.576 31.4277 156.506 31.498C156.436 31.5684 156.4 31.6504 156.4 31.7441C156.4 31.8848 156.436 32.0078 156.506 32.1133C156.576 32.207 156.664 32.2891 156.77 32.3594C156.875 32.418 156.98 32.4648 157.086 32.5C157.203 32.5234 157.303 32.5352 157.385 32.5352C157.385 32.207 157.332 31.9375 157.227 31.7266C157.121 31.5039 156.969 31.3926 156.77 31.3926ZM171.887 44.0137C172.297 44.0137 172.713 43.9082 173.135 43.6973C173.568 43.4863 174.002 43.1582 174.436 42.7129C174.881 42.2676 175.338 41.6934 175.807 40.9902C176.275 40.2754 176.756 39.4258 177.248 38.4414L177.424 38.0723L178.145 38.6172L177.969 38.9863C177.336 40.2402 176.703 41.3125 176.07 42.2031C175.449 43.0938 174.834 43.8203 174.225 44.3828C173.627 44.9453 173.035 45.3555 172.449 45.6133C171.863 45.8711 171.301 46 170.762 46C170 46 169.32 45.8418 168.723 45.5254C168.125 45.209 167.621 44.7812 167.211 44.2422C166.801 43.6914 166.49 43.0586 166.279 42.3438C166.057 41.6172 165.945 40.8555 165.945 40.0586C165.945 38.793 166.121 37.6445 166.473 36.6133C166.812 35.5703 167.27 34.6797 167.844 33.9414C168.43 33.2031 169.092 32.6289 169.83 32.2188C170.568 31.8086 171.336 31.6035 172.133 31.6035C172.941 31.6035 173.557 31.8086 173.979 32.2188C174.412 32.6289 174.629 33.1445 174.629 33.7656C174.629 34.3633 174.459 34.9258 174.119 35.4531C173.779 35.9688 173.316 36.4785 172.73 36.9824C172.156 37.4746 171.488 37.9668 170.727 38.459C169.965 38.9395 169.162 39.4375 168.318 39.9531C168.4 40.5625 168.541 41.1191 168.74 41.623C168.939 42.1152 169.191 42.543 169.496 42.9062C169.801 43.2578 170.152 43.5332 170.551 43.7324C170.949 43.9199 171.395 44.0137 171.887 44.0137ZM172.432 34.293C172.432 33.8242 172.303 33.4551 172.045 33.1855C171.799 32.916 171.494 32.7812 171.131 32.7812C170.826 32.7812 170.504 32.8926 170.164 33.1152C169.824 33.3262 169.514 33.6719 169.232 34.1523C168.951 34.6211 168.717 35.2246 168.529 35.9629C168.342 36.7012 168.248 37.5977 168.248 38.6523V39.0566C168.646 38.8457 169.086 38.5703 169.566 38.2305C170.059 37.8789 170.516 37.4922 170.938 37.0703C171.359 36.6484 171.711 36.2031 171.992 35.7344C172.285 35.2539 172.432 34.7734 172.432 34.293ZM188.076 41.6406C188.076 42.3086 188.135 42.8711 188.252 43.3281C188.369 43.7852 188.574 44.0137 188.867 44.0137C189.043 44.0137 189.23 43.9316 189.43 43.7676C189.641 43.5918 189.881 43.3105 190.15 42.9238C190.42 42.5371 190.725 42.0391 191.064 41.4297C191.416 40.8086 191.814 40.0527 192.26 39.1621L192.787 38.0723L193.508 38.6172L192.98 39.707C192.488 40.6914 192.025 41.5762 191.592 42.3613C191.17 43.1348 190.766 43.791 190.379 44.3301C189.992 44.8691 189.611 45.2852 189.236 45.5781C188.873 45.8594 188.51 46 188.146 46C187.76 46 187.432 45.8945 187.162 45.6836C186.904 45.4727 186.688 45.1855 186.512 44.8223C186.336 44.4473 186.201 44.0195 186.107 43.5391C186.014 43.0469 185.949 42.5254 185.914 41.9746C185.633 42.5371 185.322 43.0645 184.982 43.5566C184.643 44.0371 184.285 44.459 183.91 44.8223C183.547 45.1855 183.166 45.4727 182.768 45.6836C182.369 45.8945 181.971 46 181.572 46C180.986 46 180.418 45.877 179.867 45.6309C179.316 45.3848 178.824 45.0098 178.391 44.5059C177.969 44.002 177.629 43.3691 177.371 42.6074C177.113 41.834 176.984 40.9258 176.984 39.8828C176.984 38.6641 177.143 37.5508 177.459 36.543C177.775 35.5234 178.203 34.6504 178.742 33.9238C179.281 33.1855 179.902 32.6172 180.605 32.2188C181.309 31.8086 182.047 31.6035 182.82 31.6035C183.289 31.6035 183.723 31.709 184.121 31.9199C184.52 32.1309 184.865 32.3887 185.158 32.6934C185.463 32.9863 185.715 33.3027 185.914 33.6426C186.113 33.9707 186.248 34.252 186.318 34.4863L186.529 32.7812C186.553 32.5586 186.658 32.3711 186.846 32.2188C187.045 32.0664 187.262 31.9492 187.496 31.8672C187.73 31.7734 187.959 31.709 188.182 31.6738C188.404 31.627 188.562 31.6035 188.656 31.6035C188.797 31.6035 188.891 31.627 188.938 31.6738C188.984 31.7207 189.008 31.8145 189.008 31.9551C189.008 32.1309 188.955 32.4883 188.85 33.0273C188.756 33.5547 188.65 34.2344 188.533 35.0664C188.428 35.8867 188.322 36.8535 188.217 37.9668C188.123 39.0801 188.076 40.3047 188.076 41.6406ZM186.143 37C186.143 36.4609 186.061 35.9336 185.896 35.418C185.732 34.8906 185.51 34.4277 185.229 34.0293C184.947 33.6191 184.619 33.291 184.244 33.0449C183.881 32.7988 183.494 32.6758 183.084 32.6758C182.58 32.6758 182.105 32.8223 181.66 33.1152C181.227 33.3965 180.846 33.8008 180.518 34.3281C180.201 34.8438 179.949 35.4707 179.762 36.209C179.574 36.9355 179.48 37.7383 179.48 38.6172C179.48 40.375 179.756 41.7168 180.307 42.6426C180.857 43.5566 181.59 44.0137 182.504 44.0137C182.902 44.0137 183.312 43.8555 183.734 43.5391C184.168 43.2109 184.561 42.748 184.912 42.1504C185.275 41.541 185.568 40.8027 185.791 39.9355C186.025 39.0684 186.143 38.0898 186.143 37ZM207.658 38.6172L207.482 38.9863C206.99 39.9707 206.521 40.8906 206.076 41.7461C205.631 42.6016 205.186 43.3457 204.74 43.9785C204.295 44.6113 203.838 45.1094 203.369 45.4727C202.912 45.8242 202.42 46 201.893 46C201.365 46 200.85 45.8594 200.346 45.5781C199.842 45.2969 199.338 44.9043 198.834 44.4004C198.342 43.8965 197.844 43.3105 197.34 42.6426C196.848 41.9629 196.338 41.2246 195.811 40.4277L195.195 40.5332C195.172 41.5645 195.137 42.4961 195.09 43.3281C195.043 44.1484 194.984 44.8223 194.914 45.3496C194.879 45.584 194.779 45.7539 194.615 45.8594C194.463 45.9531 194.252 46 193.982 46C193.666 46 193.402 45.959 193.191 45.877C192.98 45.7949 192.816 45.6953 192.699 45.5781C192.57 45.4492 192.482 45.3145 192.436 45.1738C192.377 45.0215 192.348 44.875 192.348 44.7344C192.348 43.9844 192.471 43.0527 192.717 41.9395V32.8516C192.717 30.6016 192.834 28.6562 193.068 27.0156C193.303 25.3633 193.619 23.998 194.018 22.9199C194.416 21.8301 194.879 21.0273 195.406 20.5117C195.945 19.9844 196.514 19.7207 197.111 19.7207C197.756 19.7207 198.213 19.9316 198.482 20.3535C198.764 20.7637 198.904 21.332 198.904 22.0586C198.904 22.6914 198.811 23.5059 198.623 24.502C198.436 25.4863 198.172 26.5703 197.832 27.7539C197.504 28.9375 197.117 30.1738 196.672 31.4629C196.227 32.7402 195.746 33.9883 195.23 35.207V35.5938C195.559 35.0664 195.939 34.5625 196.373 34.082C196.818 33.6016 197.293 33.1797 197.797 32.8164C198.301 32.4414 198.816 32.1484 199.344 31.9375C199.883 31.7148 200.41 31.6035 200.926 31.6035C201.383 31.6035 201.799 31.668 202.174 31.7969C202.561 31.9258 202.895 32.1133 203.176 32.3594C203.457 32.6055 203.674 32.916 203.826 33.291C203.979 33.6543 204.055 34.0762 204.055 34.5566C204.055 35.0488 203.943 35.541 203.721 36.0332C203.51 36.5254 203.17 37 202.701 37.457C202.244 37.9141 201.652 38.3477 200.926 38.7578C200.199 39.1562 199.32 39.5078 198.289 39.8125C198.359 39.918 198.477 40.0938 198.641 40.3398C198.805 40.5859 198.998 40.8672 199.221 41.1836C199.455 41.4883 199.707 41.8105 199.977 42.1504C200.246 42.4785 200.521 42.7832 200.803 43.0645C201.096 43.334 201.383 43.5625 201.664 43.75C201.945 43.9258 202.203 44.0137 202.438 44.0137C202.754 44.0137 203.076 43.8848 203.404 43.627C203.732 43.3574 204.072 42.9824 204.424 42.502C204.787 42.0098 205.162 41.4238 205.549 40.7441C205.936 40.0527 206.34 39.2852 206.762 38.4414L206.938 38.0723L207.658 38.6172ZM195.23 37.1055C195.23 37.375 195.225 37.6152 195.213 37.8262C195.213 38.0254 195.213 38.2246 195.213 38.4238C195.213 38.6113 195.207 38.8047 195.195 39.0039C195.195 39.2031 195.195 39.4258 195.195 39.6719C196.391 39.4961 197.398 39.2617 198.219 38.9688C199.051 38.6758 199.725 38.3359 200.24 37.9492C200.756 37.5625 201.131 37.1406 201.365 36.6836C201.6 36.2148 201.717 35.7227 201.717 35.207C201.717 34.9375 201.67 34.6797 201.576 34.4336C201.494 34.1758 201.371 33.9531 201.207 33.7656C201.043 33.5664 200.838 33.4082 200.592 33.291C200.357 33.1738 200.094 33.1152 199.801 33.1152C199.391 33.1152 198.975 33.2266 198.553 33.4492C198.143 33.6602 197.732 33.9473 197.322 34.3105C196.924 34.6738 196.543 35.1016 196.18 35.5938C195.828 36.0742 195.512 36.5781 195.23 37.1055ZM196.777 20.6172C196.531 20.6172 196.314 20.8574 196.127 21.3379C195.951 21.8184 195.799 22.5684 195.67 23.5879C195.541 24.5957 195.436 25.8848 195.354 27.4551C195.271 29.0137 195.207 30.877 195.16 33.0449C195.652 31.7441 196.051 30.5254 196.355 29.3887C196.66 28.2402 196.895 27.209 197.059 26.2949C197.234 25.3691 197.352 24.5664 197.41 23.8867C197.469 23.1953 197.498 22.6445 197.498 22.2344C197.498 21.6133 197.439 21.1914 197.322 20.9688C197.217 20.7344 197.035 20.6172 196.777 20.6172Z" fill="#344046"/>
<g clip-path="url(#clip0)">
<path d="M35.25 5.36368C34.6027 5.36368 33.9262 5.47116 33.2237 5.63496C30.8711 2.19226 27.3885 0 23.5001 0C19.6116 0 16.1289 2.19226 13.7763 5.63484C13.0738 5.47116 12.3973 5.36356 11.7501 5.36356C5.27098 5.36368 0 11.9804 0 20.1136C0 25.6868 2.50355 30.7531 6.43413 33.2583L6.4133 53.5224C6.4123 54.9851 6.86494 56.3601 7.68801 57.3946C8.51208 58.4304 9.60633 59 10.7716 59H36.2327C38.6361 59 40.591 56.546 40.591 53.529V33.2386C44.507 30.727 47.0001 25.6684 47.0001 20.1136C47 11.9804 41.729 5.36368 35.25 5.36368Z" fill="#303C42"/>
<path d="M36.2327 56.3182H10.7716C10.178 56.3182 9.61994 56.0275 9.19955 55.4998C8.78015 54.9721 8.54862 54.2715 8.54962 53.5252L8.55513 48.2728H38.4546V53.5291C38.4546 55.0664 37.4573 56.3182 36.2327 56.3182Z" fill="#E6E6E6"/>
<path opacity="0.2" d="M10.686 53.5251L10.6907 48.2728H8.55513L8.54962 53.5251C8.54862 54.2715 8.78015 54.972 9.19955 55.4997C9.61994 56.0275 10.178 56.3181 10.7716 56.3181H12.5905C12.0818 56.3181 11.6034 56.0273 11.2432 55.4997C10.8835 54.9721 10.6851 54.2715 10.686 53.5251Z" fill="white"/>
<path opacity="0.1" d="M36.3182 48.2728V53.5291C36.3182 55.0664 35.4635 56.3184 34.4138 56.3184H36.2327C37.4574 56.3184 38.4547 55.0665 38.4547 53.5291V48.2728H36.3182Z" fill="black"/>
<path d="M39.1159 31.1513C39.0596 31.1801 39.0064 31.2141 38.9563 31.2547C38.8217 31.3594 38.7112 31.4984 38.6288 31.658C38.5453 31.8164 38.489 31.9998 38.466 32.1962C38.4566 32.2708 38.4535 32.3455 38.4545 32.4214V45.5909H8.55787L8.57159 32.4397C8.57259 32.3664 8.56948 32.2917 8.56117 32.2197C8.53824 32.0167 8.47876 31.8281 8.39213 31.6644C8.31072 31.5112 8.20437 31.3777 8.07498 31.2755C8.02181 31.2336 7.96543 31.1969 7.90704 31.1667C4.40107 29.2421 2.13635 24.9076 2.13635 20.1137C2.13635 13.4588 6.44877 8.04546 11.75 8.04546C11.9572 8.04546 12.1759 8.07689 12.3905 8.09813C11.3098 10.4561 10.6818 13.1806 10.6818 16.0909C10.6818 16.8321 11.1596 17.4319 11.75 17.4319C12.3404 17.4319 12.8182 16.8321 12.8182 16.0909C12.8182 8.69752 17.6104 2.68178 23.5001 2.68178C29.3897 2.68178 34.1818 8.69765 34.1818 16.0909C34.1818 16.8321 34.6596 17.4319 35.2501 17.4319C35.8405 17.4319 36.3183 16.8321 36.3183 16.0909C36.3183 13.1806 35.6903 10.4561 34.6095 8.09813C34.8241 8.07689 35.0429 8.04546 35.2501 8.04546C40.5514 8.04546 44.8637 13.4589 44.8637 20.1137C44.8637 24.8906 42.6084 29.2199 39.1159 31.1513Z" fill="#F2F2F2"/>
<path opacity="0.2" d="M23.5001 4.358C28.4041 4.358 32.5264 8.25867 33.9821 13.6108C33.0507 7.40094 28.7132 2.68178 23.5001 2.68178C18.287 2.68178 13.9494 7.40082 13.018 13.6108C14.4736 8.25854 18.5959 4.358 23.5001 4.358Z" fill="white"/>
<path opacity="0.1" d="M35.25 8.04546C35.0428 8.04546 34.8241 8.07688 34.6095 8.09813C34.6173 8.11535 34.6227 8.13433 34.6305 8.15143C38.9685 8.69274 42.3936 13.8181 42.3936 20.1135C42.3936 24.8905 40.399 29.2197 37.3104 31.1511C37.2607 31.1799 37.2136 31.214 37.1692 31.2546C37.0503 31.3593 36.9525 31.4982 36.8796 31.6579C36.8058 31.8163 36.7561 31.9997 36.7356 32.196C36.7273 32.2707 36.7245 32.3454 36.7254 32.4213V45.5907H38.4546V32.4213C38.4536 32.3454 38.4567 32.2707 38.4661 32.196C38.489 31.9996 38.5454 31.8163 38.6288 31.6579C38.7112 31.4981 38.8218 31.3593 38.9564 31.2546C39.0065 31.214 39.0596 31.1799 39.116 31.1511C42.6084 29.2199 44.8637 24.8906 44.8637 20.1136C44.8637 13.4589 40.5513 8.04546 35.25 8.04546Z" fill="black"/>
<path opacity="0.2" d="M10.2884 32.2198C10.2681 32.0168 10.2155 31.8282 10.139 31.6645C10.067 31.5113 9.97287 31.3778 9.85851 31.2756C9.81144 31.2337 9.76167 31.197 9.71 31.1668C6.6094 29.2421 4.60656 24.9076 4.60656 20.1136C4.60656 13.8182 8.03162 8.69286 12.3696 8.15156C12.3774 8.13433 12.3828 8.11535 12.3906 8.09825C12.1759 8.07688 11.9572 8.04546 11.75 8.04546C6.44867 8.04546 2.13635 13.4589 2.13635 20.1136C2.13635 24.9076 4.40107 29.2421 7.90704 31.167C7.96542 31.1971 8.0218 31.2337 8.07498 31.2757C8.20436 31.3779 8.31071 31.5114 8.39213 31.6647C8.47875 31.8283 8.53814 32.0169 8.56117 32.2199C8.56948 32.292 8.57269 32.3666 8.57159 32.4399L8.55787 45.5911H10.2856L10.2977 32.4399C10.2986 32.3665 10.2959 32.2918 10.2884 32.2198Z" fill="white"/>
<path d="M12.8182 28.1591C12.8182 27.4179 12.3404 26.8182 11.75 26.8182C11.1595 26.8182 10.6818 27.4179 10.6818 28.1591C10.6818 31.6803 13.7758 36.515 14.1284 37.0558C14.3402 37.378 14.6468 37.5455 14.9555 37.5455C15.1934 37.5455 15.4333 37.446 15.6325 37.2417C16.0883 36.7715 16.154 35.927 15.7806 35.3534C14.6354 33.6014 12.8182 30.0998 12.8182 28.1591Z" fill="#303C42"/>
<path d="M35.25 26.8182C34.6596 26.8182 34.1818 27.4179 34.1818 28.1591C34.1818 30.0932 32.3646 33.5987 31.2193 35.3548C30.8459 35.927 30.9126 36.7717 31.3685 37.2417C31.5667 37.446 31.8066 37.5455 32.0455 37.5455C32.3542 37.5455 32.6599 37.378 32.8717 37.0558C33.2243 36.515 36.3182 31.6804 36.3182 28.1591C36.3182 27.4179 35.8405 26.8182 35.25 26.8182Z" fill="#303C42"/>
<path d="M23.5 26.8182C22.9096 26.8182 22.4318 27.4179 22.4318 28.1591V36.2046C22.4318 36.9458 22.9096 37.5455 23.5 37.5455C24.0905 37.5455 24.5683 36.9458 24.5683 36.2046V28.1591C24.5682 27.4179 24.0905 26.8182 23.5 26.8182Z" fill="#303C42"/>
<path d="M35.25 5.36368C34.6027 5.36368 33.9262 5.47116 33.2237 5.63496C30.8711 2.19226 27.3885 0 23.5001 0C19.6116 0 16.1289 2.19226 13.7763 5.63484C13.0738 5.47116 12.3973 5.36356 11.7501 5.36356C5.27098 5.36368 0 11.9804 0 20.1136C0 25.6868 2.50355 30.7531 6.43413 33.2583L6.4133 53.5224C6.4123 54.9851 6.86494 56.3601 7.68801 57.3946C8.51208 58.4304 9.60633 59 10.7716 59H36.2327C38.6361 59 40.591 56.546 40.591 53.529V33.2386C44.507 30.727 47.0001 25.6684 47.0001 20.1136C47 11.9804 41.729 5.36368 35.25 5.36368Z" fill="url(#paint0_linear)"/>
</g>
<defs>
<linearGradient id="paint0_linear" x1="-0.423497" y1="17.9889" x2="47.6156" y2="35.8341" gradientUnits="userSpaceOnUse">
<stop stop-color="white" stop-opacity="0.2"/>
<stop offset="1" stop-color="white" stop-opacity="0"/>
</linearGradient>
<clipPath id="clip0">
<rect width="47" height="59" fill="white"/>
</clipPath>
</defs>
</svg>
